<svg width="521" height="62" viewBox="0 0 521 62" fill="none" xmlns="http://www.w3.org/2000/svg">
<path d="M50.5227 37.1177C50.5227 50.6433 38.475 59.9166 25.1511 59.9166C10.6825 59.9213 0 48.7734 0 34.3367C0 19.8999 11.8085 6.6259 25.2637 5.16894L32.0242 0.949912C35.721 3.95876 39.9434 6.42183 44.7663 8.15405L47.1589 5.75742L48.6227 7.25235L36.5561 19.3352C44.147 20.9677 50.518 27.8159 50.518 37.1225L50.5227 37.1177ZM14.6375 37.6065C14.8345 36.1828 14.8345 34.7401 14.8345 33.2973V11.7514C11.6724 15.1162 10.0398 20.0138 10.0398 26.3068C10.0398 31.9258 10.6356 37.9008 12.2167 43.0879C13.5068 41.6879 14.3419 39.7754 14.6422 37.6113L14.6375 37.6065ZM28.0223 57.2162H28.0833C28.0833 47.4209 28.0833 37.6208 28.0833 27.8254L24.2081 31.7075V32.9556C24.2081 34.6072 24.1377 36.2872 23.6404 37.8581C22.2752 42.1625 18.3531 45.2615 13.4505 46.4765C16.1481 52.7599 20.7083 57.2162 28.027 57.2162H28.0223ZM24.2034 22.8376V28.7414L37.3818 15.5433C32.8968 13.3317 28.7026 9.72017 24.8743 6.7398C24.6491 6.77777 24.4286 6.82048 24.2081 6.86319V22.8376H24.2034ZM38.4093 33.7577C36.3732 30.7251 33.4175 28.4139 30.1616 27.1373V37.972L38.4093 33.7624V33.7577ZM30.1663 45.6792L41.0037 40.1455C40.7175 38.5177 40.192 36.9848 39.4789 35.5706L30.1663 40.3259V45.6792ZM30.1663 57.0454C36.7438 55.9728 41.2523 49.9978 41.2523 43.0168C41.2523 42.8032 41.2523 42.5944 41.2383 42.3856L30.1616 48.0426C30.1616 51.0419 30.1616 54.046 30.1616 57.0454H30.1663ZM77.3534 50.5911L66.5066 58.5261L58.5264 52.1857L56.0868 53.9464L55.0406 52.5369L59.5679 49.3666V29.9895L57.1283 26.8193L54.3416 28.58L53.2954 27.1705L63.049 20.4789L68.3739 26.2736L73.4407 20.4599H74.1913C74.8857 21.5562 76.1242 22.2776 77.4707 22.2776C78.972 22.2776 80.1308 21.4471 80.7547 20.4599H82.9222C82.0683 29.5719 77.8554 30.7251 75.6973 30.7251C74.1069 30.7251 71.5547 29.9895 69.2043 27.6973V49.3714L72.0708 51.6589L75.9929 48.9538L77.3487 50.5958L77.3534 50.5911ZM82.5656 51.825L85.9998 49.006V29.6431L103.415 20.4837L110.729 31.755V32.1061L95.0591 41.9727V45.1429L103.767 51.1321L111.775 44.7917L112.821 46.5524L97.8458 58.882L87.0648 50.7857L83.8511 53.4243L82.5703 51.825H82.5656ZM102.354 34.7638L96.4478 26.1169L95.0544 26.9095V39.4384L102.354 34.7591V34.7638ZM113.511 51.825L116.945 49.006V29.6431L134.36 20.4837L141.674 31.755V32.1061L126.004 41.9727V45.1429L134.712 51.1321L142.72 44.7917L143.766 46.5524L128.791 58.882L118.01 50.7857L114.796 53.4243L113.515 51.825H113.511ZM133.299 34.7638L127.393 26.1169L126 26.9095V39.4384L133.299 34.7591V34.7638ZM184.38 51.8345L173.585 59.2332L166.271 52.5416L168.711 50.0738V31.959L163.485 27.3793L160.351 29.8946V50.0738L163.485 52.8928L156.518 59.2332L148.157 52.5416L150.944 50.0738V30.5495L148.157 27.3793L145.371 29.14L144.324 27.7305L154.425 20.683L160.022 26.9997L168.007 20.683L176.236 27.8349L179.295 25.3244L180.576 26.9237L177.057 29.8092V49.0155L180.191 51.8345L182.978 49.7226L184.371 51.8345H184.38ZM218.281 21.1955V49.3714L220.721 51.8392L223.855 49.7273L225.595 51.1368L215.147 58.5356L208.18 52.1952L197.015 58.1844L189.353 51.4928L186.567 53.2535L185.521 51.844L190.395 48.6738V29.2492C190.395 27.0519 189.067 25.6329 186.914 25.742V24.6837L190.395 20.9203V11.4619L206.585 2.20281L218.943 9.72491L209.982 14.8077L199.421 8.33914V21.1291H211.694L218.281 21.205V21.1955ZM205.14 25.163H199.426V49.3714L203.569 52.8548L209.231 49.3714V29.9421C209.231 25.4335 206.961 25.1773 205.52 25.163H205.145H205.14ZM225.028 51.825L228.462 49.006V29.6431L245.877 20.4837L253.191 31.755V32.1061L237.521 41.9727V45.1429L246.228 51.1321L254.237 44.7917L255.283 46.5524L240.308 58.882L229.527 50.7857L226.313 53.4243L225.032 51.825H225.028ZM244.816 34.7638L238.91 26.1169L237.516 26.9095V39.4384L244.816 34.7591V34.7638ZM273.988 52.1904L276.076 50.4297L277.122 51.8392L268.067 58.1796L260.406 51.488L257.619 53.2487L256.573 51.8392L261.448 48.669V16.668C261.448 13.1846 261.147 12.3778 257.967 11.3243V10.2659L269.808 1.8089H271.201V49.3666L273.988 52.1857V52.1904ZM282.311 17.1521L280.828 17.4084V4.22927L305.886 26.5298L308.569 24.3278L309.85 25.9271L306.744 28.4756L306.711 49.305L290.784 58.8203L280.303 51.5497V28.9549L289.151 23.4498L282.311 17.1474V17.1521ZM289.672 47.7009L297.375 53.1206V31.0336L289.672 23.9386V47.7009ZM343.188 18.367L342.493 19.4253C339.777 18.2152 337.539 15.5148 337.539 11.6754C337.539 6.3981 341.982 1.80416 349.052 1.80416C355.193 1.80416 364.815 7.05777 371.44 7.05777C372.997 7.05777 374.499 6.30793 374.499 4.69436C374.499 2.11264 371.186 1.77094 368.958 1.46246V0.0482089C375.751 -0.47383 381.062 3.29909 381.062 8.68558C381.062 14.0721 376.45 16.8104 371.205 16.8104C371.182 16.8104 371.163 16.8104 371.14 16.8104V25.6566L375.991 30.5638L371.14 35.4709V46.7043C374.686 44.2886 377.29 40.734 378.712 37.037H380.105C380.114 37.2743 380.119 37.5116 380.119 37.7489C380.119 48.9728 370.849 57.8901 359.064 57.8901C347.279 57.8901 335.831 48.5551 335.831 34.9679C335.831 25.9556 342.174 16.2836 352.941 14.4897L353.64 15.548C352.392 16.3975 348.597 19.2687 346.307 24.2423L362.301 17.3467V39.6567L349.493 45.1097C352.374 48.0094 356.357 49.827 361.043 49.827C364.027 49.827 366.734 49.1104 369.108 47.9097V35.395L364.332 30.5638L369.108 25.7325V16.6585C362.212 15.8185 349.629 11.6802 346.218 11.6802C343.694 11.6802 341.419 12.9616 341.419 15.5053C341.419 16.9101 342.212 17.8925 343.192 18.3623L343.188 18.367ZM344.487 32.6092C344.487 36.7001 345.805 40.5442 348.137 43.5625L352.922 41.4981V23.5257L345.346 26.7576C344.816 28.5041 344.487 30.4499 344.487 32.6045V32.6092ZM404.81 51.1321L394.362 58.5308L387.396 52.1904L384.956 53.9511L383.91 52.5416L388.437 49.3714V29.9943L385.998 26.8241L383.211 28.5848L382.165 27.1753L391.918 20.4837L397.492 27.1753V49.3714L399.931 51.8392L403.065 49.7273L404.806 51.1368L404.81 51.1321ZM393.058 4.40486L399.251 11.5378L392.312 17.7026L386.12 10.5697L393.058 4.40486ZM432.504 59.2332L425.303 52.8928L428.352 50.0738V31.959L423.314 27.3176L420.142 29.2634V50.0738L423.276 52.8928L416.309 59.2332L407.949 52.5416L410.736 50.0738V30.5495L407.949 27.3793L405.162 29.14L404.116 27.7305L414.217 20.683L419.56 26.7102L429.108 20.683L436.337 26.9902L446.325 20.683L453.869 27.2654L456.234 25.3244L457.515 26.9237L453.926 29.8709V48.3368L457.322 51.8392L460.447 49.4616L460.494 52.1572L449.717 59.2332L442.516 52.8928L445.565 50.0738V31.959L440.527 27.3176L436.708 29.6621V49.3192L440.48 52.7219L432.5 59.2332H432.504ZM460.991 51.825L464.425 49.006V29.6431L481.84 20.4837L489.154 31.755V32.1061L473.485 41.9727V45.1429L482.192 51.1321L490.2 44.7917L491.247 46.5524L476.271 58.882L465.49 50.7857L462.277 53.4243L460.996 51.825H460.991ZM480.78 34.7638L474.873 26.1169L473.48 26.9095V39.4384L480.78 34.7591V34.7638ZM493.574 55.1376C493.574 52.086 494.765 49.3951 500.47 44.0371L494.967 39.6472V29.3583L509.98 20.5406C511.031 22.1115 512.827 23.7535 515.281 23.7535C517.186 23.7535 518.729 22.4294 518.917 20.6877H518.945H521C520.432 26.2973 518.757 30.4783 514.667 34.2987L520.925 38.9876V50.0833L506.578 58.901C505.598 57.145 503.773 55.465 501.197 55.465C499.499 55.465 497.772 56.4521 497.772 58.2461C497.772 59.1193 498.227 59.7362 498.809 60.0732L498.101 62C495.596 61.0176 493.578 58.5925 493.578 55.1423L493.574 55.1376ZM504.913 42.789C502.337 45.029 499.752 47.2073 497.974 49.4473C499.349 48.3463 501.127 47.6914 503.064 47.6914C507.221 47.6914 510.21 50.3585 511.551 53.3389V43.7666L507.526 40.5252L504.918 42.7937L504.913 42.789ZM512.691 33.3163C513.738 32.4051 514.821 31.3373 515.797 29.9421C514.69 30.4309 513.451 30.6966 512.147 30.6966C508.999 30.6966 505.823 29.0309 504.331 25.2912V34.8635L507.334 37.9672L512.687 33.3211L512.691 33.3163Z" fill="#1D1D1B"/>
</svg>
