<svg width="80" height="56" viewBox="0 0 80 56" fill="none" xmlns="http://www.w3.org/2000/svg">
<rect x="0.5" y="0.5" width="79" height="55" rx="4.5" fill="white" stroke="#D4D4D8"/>
<rect x="41.9956" y="21" width="12" height="2" rx="1" fill="#D4D4D8"/>
<rect x="41.9956" y="25" width="32" height="2" rx="1" fill="#D4D4D8"/>
<rect x="41.9956" y="29" width="32" height="2" rx="1" fill="#D4D4D8"/>
<rect x="41.9956" y="33" width="24" height="2" rx="1" fill="#D4D4D8"/>
<path fill-rule="evenodd" clip-rule="evenodd" d="M12.4 16.7998C11.5513 16.7998 10.7373 17.1369 10.1372 17.7371C9.53709 18.3372 9.19995 19.1511 9.19995 19.9998V35.9998C9.19995 36.8485 9.53709 37.6624 10.1372 38.2625C10.7373 38.8627 11.5513 39.1998 12.4 39.1998H31.5999C32.4486 39.1998 33.2626 38.8627 33.8627 38.2625C34.4628 37.6624 34.7999 36.8485 34.7999 35.9998V19.9998C34.7999 19.1511 34.4628 18.3372 33.8627 17.7371C33.2626 17.1369 32.4486 16.7998 31.5999 16.7998H12.4ZM31.5999 35.9998H12.4L18.8 23.1998L23.6 32.7998L26.7999 26.3998L31.5999 35.9998Z" fill="#D4D4D8"/>
</svg>
