<svg width="80" height="56" viewBox="0 0 80 56" fill="none" xmlns="http://www.w3.org/2000/svg">
<rect x="0.5" y="0.5" width="79" height="55" rx="4.5" fill="white" stroke="#D4D4D8"/>
<path fill-rule="evenodd" clip-rule="evenodd" d="M30.4 16.7998C29.5513 16.7998 28.7373 17.1369 28.1372 17.7371C27.5371 18.3372 27.2 19.1511 27.2 19.9998V35.9998C27.2 36.8485 27.5371 37.6624 28.1372 38.2625C28.7373 38.8627 29.5513 39.1998 30.4 39.1998H49.5999C50.4486 39.1998 51.2626 38.8627 51.8627 38.2625C52.4628 37.6624 52.7999 36.8485 52.7999 35.9998V19.9998C52.7999 19.1511 52.4628 18.3372 51.8627 17.7371C51.2626 17.1369 50.4486 16.7998 49.5999 16.7998H30.4ZM49.5999 35.9998H30.4L36.8 23.1998L41.6 32.7998L44.8 26.3998L49.5999 35.9998Z" fill="#D4D4D8"/>
</svg>
