<svg width="80" height="56" viewBox="0 0 80 56" fill="none" xmlns="http://www.w3.org/2000/svg">
<rect x="0.5" y="0.5" width="79" height="55" rx="4.5" fill="white" stroke="#D4D4D8"/>
<rect x="5.99561" y="21" width="12" height="2" rx="1" fill="#D4D4D8"/>
<rect x="5.99561" y="25" width="32" height="2" rx="1" fill="#D4D4D8"/>
<rect x="5.99561" y="29" width="32" height="2" rx="1" fill="#D4D4D8"/>
<rect x="5.99561" y="33" width="24" height="2" rx="1" fill="#D4D4D8"/>
<path fill-rule="evenodd" clip-rule="evenodd" d="M48.4 16.7998C47.5513 16.7998 46.7373 17.1369 46.1372 17.7371C45.5371 18.3372 45.2 19.1511 45.2 19.9998V35.9998C45.2 36.8485 45.5371 37.6624 46.1372 38.2625C46.7373 38.8627 47.5513 39.1998 48.4 39.1998H67.5999C68.4486 39.1998 69.2626 38.8627 69.8627 38.2625C70.4628 37.6624 70.7999 36.8485 70.7999 35.9998V19.9998C70.7999 19.1511 70.4628 18.3372 69.8627 17.7371C69.2626 17.1369 68.4486 16.7998 67.5999 16.7998H48.4ZM67.5999 35.9998H48.4L54.8 23.1998L59.6 32.7998L62.7999 26.3998L67.5999 35.9998Z" fill="#D4D4D8"/>
</svg>
